<svg id="Calque_1" data-name="Calque 1" xmlns="http://www.w3.org/2000/svg" xmlns:xlink="http://www.w3.org/1999/xlink" viewBox="0 0 323.04 375.18"><defs><style>.cls-1{fill:url(#Dégradé_sans_nom_3);}.cls-2{fill:url(#Dégradé_sans_nom_3-2);}.cls-3{fill:url(#Dégradé_sans_nom_3-3);}.cls-4{fill:url(#Dégradé_sans_nom_3-4);}.cls-5{fill:url(#Dégradé_sans_nom_3-5);}</style><linearGradient id="Dégradé_sans_nom_3" x1="-29.06" y1="341.76" x2="251.74" y2="102" gradientUnits="userSpaceOnUse"><stop offset="0" stop-color="#262c84"/><stop offset="1" stop-color="#13c2d5"/></linearGradient><linearGradient id="Dégradé_sans_nom_3-2" x1="-20.78" y1="351.46" x2="260.02" y2="111.7" xlink:href="#Dégradé_sans_nom_3"/><linearGradient id="Dégradé_sans_nom_3-3" x1="84.02" y1="474.2" x2="364.82" y2="234.44" xlink:href="#Dégradé_sans_nom_3"/><linearGradient id="Dégradé_sans_nom_3-4" x1="26.68" y1="407.04" x2="307.48" y2="167.28" xlink:href="#Dégradé_sans_nom_3"/><linearGradient id="Dégradé_sans_nom_3-5" x1="-19.68" y1="352.75" x2="261.12" y2="112.99" xlink:href="#Dégradé_sans_nom_3"/></defs><polygon class="cls-1" points="48.96 210.42 30.36 190.98 0 221.58 0 375.18 48.96 375.18 48.96 210.42"/><polygon class="cls-2" points="117.48 91.62 68.52 139.86 68.52 375.18 117.48 375.18 117.48 91.62"/><polygon class="cls-3" points="274.08 210.42 292.68 190.98 323.04 221.58 323.04 375.18 274.08 375.18 274.08 210.42"/><polygon class="cls-4" points="205.56 91.62 254.52 139.86 254.52 375.18 205.56 375.18 205.56 91.62"/><polygon class="cls-5" points="186 26.64 161.52 0 137.04 26.64 137.04 375.18 186 375.18 186 26.64"/></svg>